<?xml version="1.0" encoding="utf-8"?>
<!-- Generator: Adobe Illustrator 19.0.0, SVG Export Plug-In . SVG Version: 6.00 Build 0)  -->
<svg version="1.1" id="Layer_1" xmlns="http://www.w3.org/2000/svg" xmlns:xlink="http://www.w3.org/1999/xlink" x="0px" y="0px"
	 width="171px" height="47px" viewBox="-212 397.9 171 47" style="enable-background:new -212 397.9 171 47;" xml:space="preserve">
<style type="text/css">
	.st0{fill:#240C2E;}
	.st1{fill:#F7BA5F;}
</style>
<title>finsweet-logo</title>
<desc>Created with Sketch.</desc>
<g id="Artboard" transform="translate(-256.000000, -80.000000)">
	<g id="finsweet-logo" transform="translate(256.000000, 80.000000)">
		<path class="st0" d="M-196.1,444.6c-4.3,0-12.4,0-12.4-10.4v-7.1c-1.5-0.5-2.5-1.9-2.5-3.6v-4.3c0-1.7,1.1-3.1,2.5-3.6v-7.1
			c0-10.4,8-10.4,12.4-10.4c2.1,0,3.8,1.7,3.8,3.8v2.8c2.3-1.6,5.1-1.8,6.6-1.8h4c0.5,0,1.1,0.1,1.5,0.3c0.4-0.1,0.8-0.2,1.3-0.2
			h6.3c2.1,0,3.8,1.7,3.8,3.8c0,0,0,5.1,0,5.2h5.7c0.6,0,1.3,0.2,1.8,0.4c1.3-0.6,2.6-0.8,4-0.8c3,0,5.7,1.2,7.5,3.3
			c0.4,0.4,0.7,0.9,1,1.4c0.5-0.7,1.1-1.3,1.7-1.9c2.1-1.8,5-2.8,8.5-2.8c3,0,5.5,0.6,7.6,1.9c0,0,0,0,0.1-0.1
			c0.7-0.9,1.8-1.4,3-1.4h5.8c1.1,0,2.1,0.5,2.8,1.2c0.7-0.7,1.7-1.2,2.8-1.2h4c1.1,0,2,0.4,2.7,1.2c0.7-0.7,1.7-1.2,2.7-1.2h5.7
			c1.2,0,2.3,0.5,3,1.4c0.1,0.1,0.2,0.3,0.3,0.4c1.7-1.2,4.2-2.2,7.5-2.2c3.8,0,6.9,1.2,9.2,3.6c0.5,0.5,0.9,1,1.3,1.6
			c0.2-0.3,0.5-0.6,0.7-0.9c1.6-2,4.6-4.3,9.8-4.3c2.6,0,4.9,0.6,6.9,1.7c0.5-0.7,1.3-1.1,2.1-1.3v-5.3c0-2.1,1.7-3.8,3.8-3.8h6.3
			c2.1,0,3.8,1.7,3.8,3.8v5.3c1.8,0.3,3.2,1.9,3.2,3.8v4.4c0,1.9-1.4,3.5-3.2,3.8v3h0.9c2.1,0,3.8,1.7,3.8,3.8v5.2
			c0,2.1-1.7,3.8-3.8,3.8h-4c-3.1,0-5.7-0.9-7.5-2.6c-0.3-0.2-0.5-0.5-0.7-0.8c-0.2,0.3-0.5,0.6-0.8,0.8c-1.3,1-2.9,1.7-4.5,2.2
			c-1.8,0.6-3.8,0.9-5.8,0.9c-4,0-7.4-1.4-9.9-4c0,0,0,0,0,0c-0.2,0.3-0.5,0.6-0.8,0.9c-1.3,1-2.9,1.7-4.5,2.2
			c-1.8,0.6-3.8,0.9-5.9,0.9c-4,0-7.4-1.4-9.9-4c-0.6-0.7-1.2-1.4-1.7-2.2l-0.6,2.7c-0.4,1.7-1.9,2.9-3.7,2.9h-5.3
			c-1.4,0-2.7-0.8-3.4-2c-0.6,1.2-1.9,2-3.4,2h-5.3c-1.8,0-3.3-1.2-3.7-2.9l-0.4-1.9c-0.6,1-1.5,1.9-2.6,2.6
			c-2.2,1.6-5.1,2.5-8.6,2.5c-3.6,0-6.5-1-8.8-2.9c-0.5,1.5-1.9,2.6-3.6,2.6h-6.1c-1.1,0-2-0.4-2.7-1.2c-0.7,0.8-1.7,1.3-2.8,1.3
			h-6.2c-0.7,0-1.3-0.2-1.8-0.5c-0.5,0.3-1.2,0.5-1.8,0.5h-6.3c-1.9,0-3.5-1.5-3.8-3.4c-0.3,1.7-1.9,3.1-3.7,3.1h-4.9
			c-0.3,0.1-0.7,0.2-1.1,0.3v1C-192.3,443-194,444.6-196.1,444.6z"/>
		<path id="fs-yellow" class="st1" d="M-50.4,406.8v9.1h3.2v4.4h-3.2v8.2c0,0.8,0.2,1.4,0.6,1.8c0.4,0.4,1,0.6,1.8,0.6
			c0.4,0,2.3,0,2.3,0v5.2c0,0-3.5,0-4,0c-1.6,0-3.6-0.3-5-1.6c-1.4-1.3-2-3-2-5.4v-8.9h-2.9v-4.4h2.9v-9H-50.4z M-69.1,436.5
			c-2.9,0-5.4-1-7.1-2.8c-1.8-1.8-2.6-4.2-2.6-7V426c0-3.1,0.8-5.6,2.4-7.6c1.6-1.9,3.9-2.9,6.9-2.9c2.7,0,4.9,0.8,6.4,2.4
			c1.6,1.7,2.3,3.9,2.3,6.7v3.3h-11.5v0.1c0.1,1.1,0.6,1.8,1.3,2.5c0.7,0.7,1.7,1,2.8,1c1.2,0,2.1-0.1,2.8-0.3s1.7-0.5,2.7-1
			l1.5,3.9c-0.9,0.7-2,1.2-3.4,1.7C-66,436.3-67.6,436.5-69.1,436.5z M-69.6,420.3c-0.9,0-1.6,0.3-2,1s-0.7,1.6-0.8,2.6l0.1,0.1h5.4
			v-0.5c0-1.1-0.2-1.8-0.6-2.3C-68.1,420.5-68.7,420.3-69.6,420.3z M-90.2,436.5c-2.9,0-5.4-1-7.1-2.8s-2.6-4.2-2.6-7V426
			c0-3.1,0.8-5.6,2.4-7.6c1.6-1.9,3.9-2.9,6.9-2.9c2.7,0,4.9,0.8,6.4,2.4s2.3,3.9,2.3,6.7v3.3h-11.5v0.1c0.1,1.1,0.6,1.8,1.3,2.5
			c0.7,0.7,1.7,1,2.8,1c1.2,0,2.1-0.1,2.8-0.3c0.7-0.2,1.7-0.5,2.7-1l1.5,3.9c-0.9,0.7-2,1.2-3.4,1.7
			C-87,436.3-88.6,436.5-90.2,436.5z M-90.6,420.3c-0.9,0-1.6,0.3-2,1s-0.7,1.6-0.8,2.6l0.1,0.1h5.4v-0.5c0-1.1-0.2-1.8-0.6-2.3
			C-89.1,420.5-89.7,420.3-90.6,420.3z M-109.3,427.5L-109.3,427.5l2.2-11.8h5.7L-106,436h-5.3l-3.3-10.8h-0.1L-118,436h-5.3
			l-4.7-20.2h5.8l2.2,11.9h0.1l3.2-11.9h4L-109.3,427.5z M-135.8,430.3c0-0.5-0.3-1-0.9-1.4c-0.6-0.4-1.6-0.8-3.1-1.1
			c-2.3-0.5-4.1-1.2-5.3-2.1c-1.2-1-1.8-2.3-1.8-4c0-1.8,0.8-3.3,2.2-4.6c1.5-1.3,3.5-1.8,6-1.8c2.6,0,4.8,0.6,6.3,1.8
			c1.6,1.2,2.3,2.7,2.2,4.7v0.1h-6c0-0.8-0.2-1.4-0.6-1.8c-0.4-0.4-1.1-0.6-1.9-0.6c-0.7,0-1.2,0.2-1.7,0.6
			c-0.5,0.4-0.7,0.8-0.7,1.4s0.3,1,0.8,1.4c0.5,0.4,1.6,0.7,3.1,1c2.4,0.5,4.3,1.2,5.4,2.1c1.2,1,1.8,2.3,1.8,4.1
			c0,1.8-0.8,3.3-2.4,4.5c-1.6,1.2-3.7,1.8-6.3,1.8c-2.7,0-4.9-0.7-6.5-2.1c-1.6-1.4-2.3-2.9-2.2-4.7v-0.1h5.7c0,1,0.3,1.7,0.9,2
			s1.4,0.7,2.3,0.7c0.9,0,1.5-0.2,1.9-0.5C-136,431.4-135.8,430.9-135.8,430.3z M-163,415.7l0.2,2.8c0.7-1,1.5-1.8,2.4-2.3
			c1-0.6,2-0.9,3.2-0.9c1.9,0,3.5,0.7,4.6,1.9s1.7,3.3,1.7,6.1V436h-6.1v-12.6c0-1.2-0.2-1.9-0.7-2.4c-0.5-0.5-1.2-0.7-2.1-0.7
			c-0.6,0-1.1,0.1-1.6,0.3c-0.5,0.2-0.9,0.5-1.2,0.9v14.6h-6.2v-20.3H-163z M-172.6,411.9h-6.3v-5.1h6.3V411.9z M-172.6,436.1h-6.3
			v-20.3h6.3V436.1z M-192.7,436.1v-16h-2.9v-4.4h2.9v-2.1c0-2.3,0.7-4.1,2-5.4c1.4-1.3,3.5-1.6,5-1.6c0.5,0,4,0,4,0v5.1
			c0,0-1.9,0-2.3,0c-0.8,0-1.4,0.2-1.8,0.6c-0.4,0.4-0.6,1-0.6,1.8v1.5h3.9v4.4h-3.9v15.9h-6.3V436.1z M-204.7,408.5
			c0-6.1,3.2-6.6,8.6-6.6v4.8c-2.5,0-3.5,0.4-3.5,1.9v7.9c0,1.8,0.1,3.7-1.4,4.9c1.5,1.2,1.4,3,1.4,4.9v7.9c0,1.6,1,1.9,3.5,1.9v4.8
			c-5.4,0-8.6-0.5-8.6-6.6v-8c0-1.3,0-2.7-2.5-2.7v-2.1v-2.1c2.5,0,2.5-1.5,2.5-2.7V408.5z"/>
	</g>
</g>
</svg>
